<svg xmlns="http://www.w3.org/2000/svg"  viewBox="0 0 256 256" width="64px" height="64px" fill-rule="evenodd" clip-rule="evenodd"><g id="Layer_1"><path fill="#8ac6dd" d="M231.772,23.499c-1.677,0-3.236,0.499-4.546,1.348c0.001-0.046,0.007-0.091,0.007-0.137 c0-4.624-3.748-8.372-8.372-8.372c-4.624,0-8.372,3.748-8.372,8.372c0,0.047,0.006,0.091,0.007,0.137 c-1.31-0.849-2.869-1.348-4.546-1.348c-4.624,0-8.372,3.748-8.372,8.372c0,4.59,3.694,8.312,8.271,8.367v0.005h26.024v-0.005 c4.577-0.055,8.271-3.777,8.271-8.367C240.144,27.247,236.396,23.499,231.772,23.499z"/><path fill="#3a312a" d="M231.772,21.999c-1.123,0-2.229,0.191-3.274,0.561c-0.984-4.413-4.931-7.722-9.637-7.722 s-8.652,3.309-9.637,7.722c-1.046-0.37-2.151-0.561-3.274-0.561c-5.443,0-9.872,4.429-9.872,9.872 c0,5.332,4.304,9.729,9.621,9.865c0.049,0.005,0.1,0.007,0.15,0.007h26.023c0.051,0,0.101-0.002,0.15-0.007 c5.317-0.135,9.621-4.533,9.621-9.865C241.645,26.428,237.216,21.999,231.772,21.999z M231.854,38.738 c-0.034,0-0.068,0.002-0.103,0.005h-25.78c-0.034-0.003-0.069-0.004-0.104-0.005c-3.744-0.045-6.79-3.125-6.79-6.867 c0-3.789,3.083-6.872,6.872-6.872c1.324,0,2.613,0.382,3.729,1.106c0.467,0.302,1.062,0.322,1.547,0.051 c0.485-0.27,0.781-0.787,0.77-1.342l-0.007-0.105c0-3.789,3.083-6.872,6.872-6.872s6.872,3.083,6.872,6.842 c-0.002,0.024-0.006,0.11-0.007,0.135c-0.012,0.555,0.284,1.072,0.77,1.342c0.486,0.271,1.08,0.251,1.547-0.051 c1.116-0.724,2.405-1.106,3.729-1.106c3.789,0,6.872,3.083,6.872,6.872C238.645,35.613,235.599,38.693,231.854,38.738z"/><path fill="#d7e057" d="M47.671,27.334c-0.974,11.564-13.025,13.389-13.025,13.389c10.346,0.487,12.925,14.059,12.925,14.059 c0.221-9.677,13.321-14.202,13.321-14.202C51.079,39.993,47.671,27.334,47.671,27.334z"/><path fill="#3a312a" d="M60.982,39.083c-8.604-0.515-11.832-12.024-11.863-12.141c-0.19-0.702-0.849-1.164-1.584-1.102 c-0.725,0.066-1.298,0.642-1.359,1.367c-0.859,10.215-11.312,11.964-11.754,12.033c-0.763,0.115-1.313,0.79-1.273,1.561 c0.04,0.77,0.657,1.384,1.428,1.421c9.028,0.425,11.499,12.718,11.522,12.842c0.138,0.711,0.76,1.217,1.473,1.217 c0.042,0,0.084-0.001,0.126-0.005c0.765-0.064,1.357-0.693,1.375-1.459c0.193-8.509,12.19-12.777,12.312-12.819 c0.676-0.235,1.092-0.914,0.994-1.623S61.696,39.126,60.982,39.083z M47.417,49.429c-1.357-3.13-3.709-6.907-7.587-8.876 c2.931-1.405,6.408-3.913,8.201-8.272c1.551,3.071,4.2,6.88,8.334,8.722C53.358,42.642,49.443,45.408,47.417,49.429z"/><path fill="#d7e057" d="M25.972,44.314c-0.689,8.179-9.212,9.471-9.212,9.471c7.318,0.344,9.142,9.944,9.142,9.944 c0.156-6.845,9.422-10.045,9.422-10.045C28.383,53.269,25.972,44.314,25.972,44.314z"/><path fill="#3a312a" d="M35.414,52.186c-5.767-0.345-7.972-8.185-7.993-8.264c-0.19-0.702-0.866-1.166-1.582-1.102 c-0.726,0.065-1.3,0.642-1.361,1.368c-0.579,6.871-7.646,8.067-7.942,8.114c-0.763,0.115-1.313,0.79-1.273,1.561 c0.04,0.77,0.657,1.384,1.428,1.421c6.035,0.284,7.724,8.644,7.739,8.726c0.136,0.713,0.759,1.22,1.473,1.22 c0.041,0,0.083-0.001,0.125-0.005c0.765-0.063,1.358-0.694,1.376-1.461c0.13-5.709,8.331-8.634,8.412-8.662 c0.676-0.234,1.093-0.913,0.996-1.622C36.713,52.771,36.128,52.229,35.414,52.186z M25.829,58.981 c-0.924-1.885-2.34-3.947-4.447-5.28c1.855-1.041,3.697-2.63,4.871-4.917c1.057,1.874,2.654,3.955,4.941,5.224 C29.345,55.11,27.205,56.749,25.829,58.981z"/><path fill="#d7e057" d="M25.972,17.657c-0.689,8.179-9.212,9.471-9.212,9.471c7.318,0.345,9.142,9.944,9.142,9.944 c0.156-6.845,9.422-10.045,9.422-10.045C28.383,26.611,25.972,17.657,25.972,17.657z"/><path fill="#3a312a" d="M35.414,25.529c-5.767-0.345-7.972-8.185-7.993-8.264c-0.19-0.702-0.866-1.165-1.582-1.102 c-0.726,0.065-1.3,0.642-1.361,1.368c-0.579,6.871-7.646,8.066-7.942,8.113c-0.763,0.115-1.313,0.79-1.273,1.561 c0.04,0.77,0.657,1.384,1.428,1.421c6.035,0.284,7.724,8.644,7.739,8.726c0.136,0.712,0.759,1.22,1.473,1.22 c0.041,0,0.083-0.001,0.125-0.005c0.765-0.063,1.358-0.694,1.376-1.461c0.13-5.709,8.331-8.634,8.412-8.662 c0.676-0.234,1.093-0.913,0.996-1.622C36.713,26.113,36.128,25.572,35.414,25.529z M25.829,32.324 c-0.924-1.886-2.34-3.947-4.447-5.28c1.855-1.042,3.697-2.63,4.871-4.917c1.057,1.874,2.654,3.955,4.94,5.224 C29.345,28.452,27.205,30.092,25.829,32.324z"/><polygon fill="#8ac6dd" points="221.61,208.5 210.07,188.5 195.06,162.5 183.51,142.5 168.5,116.5 156.95,96.5 128,46.35 99.05,96.5 87.5,116.5 72.49,142.5 60.94,162.5 49.15,182.923 42.1,195.137 34.39,208.5 16.5,239.48 239.5,239.48"/><path fill="#3a312a" d="M240.799,238.73L129.299,45.6c-0.268-0.464-0.763-0.75-1.299-0.75s-1.031,0.286-1.299,0.75L47.851,182.172 c-0.414,0.717-0.169,1.635,0.549,2.049c0.716,0.415,1.635,0.17,2.049-0.549L128,49.351L236.901,237.98H19.099l24.301-42.093 c0.414-0.717,0.168-1.635-0.549-2.049c-0.716-0.413-1.635-0.168-2.049,0.55L15.201,238.73c-0.269,0.464-0.269,1.036,0,1.5 c0.268,0.464,0.763,0.75,1.299,0.75h223c0.536,0,1.031-0.286,1.299-0.75C241.067,239.766,241.067,239.194,240.799,238.73z"/><path fill="#3a312a" d="M142.982,69.304l-31.187-53.559c-0.417-0.717-1.337-0.958-2.051-0.542 c-0.716,0.417-0.958,1.335-0.541,2.051l31.187,53.559c0.278,0.479,0.781,0.745,1.297,0.745c0.257,0,0.517-0.065,0.754-0.204 C143.157,70.938,143.399,70.02,142.982,69.304z"/><path fill="#3a312a" d="M146.441,15.204c-0.713-0.416-1.634-0.175-2.051,0.542l-31.187,53.559 c-0.417,0.716-0.175,1.634,0.541,2.051c0.237,0.138,0.497,0.204,0.754,0.204c0.516,0,1.019-0.267,1.297-0.745l31.187-53.559 C147.399,16.539,147.157,15.621,146.441,15.204z"/><polygon fill="#87796f" points="128,142.5 72.011,239.476 183.989,239.476"/><path fill="#3a312a" d="M185.288,238.726l-55.989-96.976c-0.268-0.464-0.763-0.75-1.299-0.75s-1.031,0.286-1.299,0.75 l-55.989,96.976c-0.269,0.464-0.269,1.036,0,1.5c0.268,0.464,0.763,0.75,1.299,0.75h111.979c0.536,0,1.031-0.286,1.299-0.75 C185.557,239.762,185.557,239.189,185.288,238.726z M74.608,237.976L128,145.5l53.392,92.476H74.608z"/><polygon fill="#fce8cb" points="179.47,188.617 169.033,179.265 128,142.5 183.989,239.476 190.5,198.5"/><path fill="#3a312a" d="M191.501,197.383l-11.029-9.883c-0.617-0.553-1.566-0.5-2.118,0.116c-0.553,0.617-0.501,1.565,0.116,2.118 l10.421,9.337l-5.719,35.988l-49.175-85.172l34.035,30.495c0.617,0.553,1.566,0.5,2.118-0.116 c0.553-0.617,0.501-1.565-0.116-2.118l-41.033-36.766c-0.549-0.492-1.374-0.512-1.946-0.047 c-0.572,0.464-0.723,1.276-0.354,1.915l55.989,96.976c0.271,0.47,0.77,0.75,1.299,0.75c0.09,0,0.182-0.008,0.273-0.025 c0.624-0.116,1.108-0.612,1.208-1.24l6.511-40.976C192.062,198.232,191.881,197.723,191.501,197.383z"/><polygon fill="#fce8cb" points="65.521,198.5 72.032,239.476 128.021,142.5"/><path fill="#3a312a" d="M128.966,141.335c-0.571-0.463-1.396-0.445-1.946,0.047l-62.5,56c-0.38,0.34-0.561,0.85-0.48,1.353 l6.512,40.976c0.1,0.627,0.584,1.124,1.208,1.24c0.092,0.017,0.184,0.025,0.273,0.025c0.529,0,1.028-0.28,1.299-0.75 l55.988-96.976C129.688,142.612,129.538,141.8,128.966,141.335z M72.85,235.06l-5.72-35.988l54.894-49.184L72.85,235.06z"/><path fill="#3a312a" d="M128,15c-0.828,0-1.5,0.671-1.5,1.5v223c0,0.829,0.672,1.5,1.5,1.5s1.5-0.671,1.5-1.5v-223 C129.5,15.671,128.828,15,128,15z"/><circle cx="32.812" cy="102.132" r="7.322" fill="#fce8cb" fill-rule="evenodd" clip-rule="evenodd"/><path fill="#3a312a" d="M32.812,93.31c-4.864,0-8.822,3.958-8.822,8.822c0,4.865,3.958,8.822,8.822,8.822s8.822-3.958,8.822-8.822 C41.634,97.268,37.676,93.31,32.812,93.31z M32.812,107.954c-3.21,0-5.822-2.612-5.822-5.822c0-3.21,2.612-5.822,5.822-5.822 s5.822,2.612,5.822,5.822C38.634,105.342,36.021,107.954,32.812,107.954z"/><path fill="#fce8cb" fill-rule="evenodd" d="M96.72,94.81c-4.044,0-7.322,3.278-7.322,7.322c0,4.044,3.278,7.322,7.322,7.322 c4.044,0,7.322-3.278,7.322-7.322C104.042,98.088,100.764,94.81,96.72,94.81z" clip-rule="evenodd"/><path fill="#3a312a" d="M96.72,93.31c-4.864,0-8.822,3.958-8.822,8.822c0,4.865,3.958,8.822,8.822,8.822s8.822-3.958,8.822-8.822 C105.542,97.268,101.584,93.31,96.72,93.31z M96.72,107.954c-3.21,0-5.822-2.612-5.822-5.822c0-3.21,2.612-5.822,5.822-5.822 s5.822,2.612,5.822,5.822C102.542,105.342,99.93,107.954,96.72,107.954z"/><path fill="#fce8cb" d="M64.766,66.119c-17.927,0-32.459,14.532-32.459,32.459c0,17.927,17.956,45.443,32.459,45.443 c15.194,0,32.459-27.516,32.459-45.443C97.225,80.651,82.693,66.119,64.766,66.119z"/><path fill="#3a312a" d="M64.766,64.619c-18.725,0-33.959,15.234-33.959,33.959c0,8.818,4.236,20.426,11.057,30.296 c7.311,10.579,15.658,16.646,22.902,16.646c16.071,0,33.959-27.98,33.959-46.942C98.725,79.853,83.49,64.619,64.766,64.619z M64.766,142.521c-13.663,0-30.959-27.245-30.959-43.942c0-17.071,13.888-30.959,30.959-30.959s30.959,13.888,30.959,30.959 c0,8.344-3.936,19.303-10.271,28.599C78.905,136.785,71.172,142.521,64.766,142.521z"/><path fill="#87796f" d="M98.737,91.075c0-17.74-15.042-32.12-33.596-32.12c-18.555,0-33.596,14.381-33.596,32.121 c0,1.877,0.34,3.277,0.971,5.024c0.297,0.824,5.109-1.808,5.518-2.096c2.049-1.442,3.722-3.397,4.974-5.558 c0.517-0.899,0.949-1.813,1.296-2.728c1.107-2.918,4.116-11.037,7.172-10.4c4.097,0.854,8.741,1.337,13.667,1.337 s9.57-0.483,13.667-1.337c3.055-0.637,6.064,7.482,7.171,10.4c0.347,0.915,0.779,1.829,1.296,2.728 c2.067,3.575,5.558,6.978,9.804,7.598c0.011-0.205,0.27-0.275,0.463-0.345C98.932,95.193,98.737,92.19,98.737,91.075z"/><path fill="#3a312a" d="M100.24,91.43l-0.004-0.354c0-18.539-15.744-33.621-35.096-33.621c-19.353,0-35.097,15.082-35.097,33.621 c0,2.156,0.424,3.771,1.06,5.534c0.183,0.505,0.59,0.89,1.115,1.056c0.164,0.052,0.352,0.075,0.557,0.075 c2.104,0,6.08-2.481,6.12-2.51c2.115-1.489,3.985-3.575,5.412-6.037c0.548-0.953,1.018-1.943,1.396-2.943l0.069-0.183 c3.557-9.384,5.211-9.317,5.395-9.281c4.355,0.908,9.057,1.369,13.973,1.369c4.915,0,9.616-0.46,13.972-1.369 c0.179-0.036,1.838-0.102,5.394,9.279l0.07,0.185c0.38,1.002,0.851,1.993,1.399,2.946c2.666,4.612,6.735,7.726,10.887,8.332 c0.419,0.058,0.842-0.057,1.168-0.325c0.056-0.045,0.107-0.094,0.154-0.146C100.31,96.164,100.265,93.094,100.24,91.43z M96.941,94.32c-0.102,0.037-0.195,0.077-0.282,0.12c-3.036-0.695-6.02-3.17-8.085-6.743c-0.469-0.813-0.87-1.658-1.193-2.511 l-0.069-0.184c-2.371-6.252-5.086-11.934-8.811-11.152c-4.155,0.866-8.65,1.305-13.36,1.305c-4.711,0-9.206-0.439-13.361-1.305 c-3.733-0.783-6.44,4.902-8.812,11.154l-0.068,0.182c-0.323,0.852-0.725,1.697-1.19,2.507c-1.208,2.085-2.777,3.843-4.526,5.074 c-0.487,0.32-2.435,1.333-3.609,1.779c-0.34-1.107-0.529-2.143-0.529-3.472c0-16.884,14.398-30.621,32.097-30.621 c17.697,0,32.096,13.736,32.096,30.621l0.004,0.398C97.269,93.38,97.101,94.079,96.941,94.32z"/><path fill="#3a312a" d="M53.279,95.043c-1.75,0-3.168,1.419-3.168,3.168c0,1.75,1.418,3.168,3.168,3.168 c1.75,0,3.168-1.418,3.168-3.168C56.448,96.462,55.029,95.043,53.279,95.043z"/><path fill="#3a312a" d="M76.199,95.043c-1.75,0-3.168,1.419-3.168,3.168c0,1.75,1.418,3.168,3.168,3.168 c1.75,0,3.168-1.418,3.168-3.168C79.367,96.462,77.949,95.043,76.199,95.043z"/><path fill="#f5978a" d="M46.947,103.551c-3.014,0-5.457,1.826-5.457,4.08c0,2.253,2.443,4.08,5.457,4.08 c3.014,0,5.458-1.826,5.458-4.08C52.405,105.377,49.961,103.551,46.947,103.551z"/><path fill="#f5978a" d="M82.531,103.551c-3.014,0-5.458,1.826-5.458,4.08c0,2.253,2.443,4.08,5.458,4.08 c3.014,0,5.457-1.826,5.457-4.08C87.988,105.377,85.545,103.551,82.531,103.551z"/><path fill="#3a312a" d="M74.195,117.324c-0.778-0.291-1.641,0.103-1.931,0.879c-0.598,1.594-2.946,4.608-7.564,4.608 c-3.659,0-6.079-1.502-7.615-4.728c-0.356-0.748-1.251-1.065-1.999-0.709c-0.748,0.356-1.066,1.251-0.71,2 c2.035,4.271,5.508,6.438,10.324,6.438c5.44,0,9.191-3.399,10.373-6.557C75.364,118.479,74.971,117.614,74.195,117.324z"/><path fill="#87796f" d="M181.68,101.796c-4.308-4.308-16.312,0.712-26.813,11.213c-10.501,10.501-15.521,22.505-11.213,26.813 c4.308,4.308,16.313-0.712,26.813-11.213C180.968,118.109,185.988,106.104,181.68,101.796z"/><path fill="#3a312a" d="M182.74,100.736c-2.542-2.543-7.062-2.637-12.724-0.271c-5.24,2.191-10.997,6.27-16.21,11.483 c-5.214,5.213-9.292,10.971-11.483,16.211c-2.368,5.663-2.272,10.182,0.271,12.724c1.318,1.318,3.168,1.979,5.434,1.979 c2.103,0,4.563-0.569,7.29-1.709c5.24-2.191,10.997-6.27,16.21-11.483c5.214-5.213,9.292-10.97,11.483-16.21 C185.379,107.796,185.283,103.278,182.74,100.736z M180.243,112.302c-2.045,4.889-5.894,10.303-10.837,15.247 c-4.943,4.943-10.358,8.792-15.246,10.836c-4.401,1.841-7.843,1.979-9.445,0.377c-1.602-1.602-1.464-5.044,0.376-9.445 c2.045-4.888,5.893-10.303,10.837-15.247c4.943-4.943,10.358-8.792,15.246-10.836c2.365-0.989,4.453-1.486,6.127-1.486 c1.442,0,2.577,0.369,3.318,1.11C182.221,104.458,182.083,107.901,180.243,112.302z"/><path fill="#87796f" d="M224.244,113.009c-10.501-10.501-22.505-15.521-26.813-11.213c-4.308,4.308,0.712,16.313,11.213,26.813 c10.501,10.5,22.505,15.521,26.813,11.213C239.765,135.514,234.745,123.51,224.244,113.009z"/><path fill="#3a312a" d="M225.305,111.948c-11.256-11.257-23.966-16.181-28.935-11.212c-2.542,2.542-2.638,7.061-0.271,12.724 c2.191,5.24,6.27,10.998,11.483,16.21c8.289,8.289,17.366,13.145,23.561,13.145c2.216,0,4.064-0.622,5.374-1.932 C241.485,135.915,236.561,123.205,225.305,111.948z M234.396,138.762c-3.186,3.187-14.112-0.634-24.692-11.213 c-4.943-4.944-8.792-10.358-10.836-15.247c-1.841-4.401-1.978-7.844-0.377-9.445c0.729-0.728,1.858-1.09,3.298-1.09 c4.861,0,13.231,4.14,21.395,12.303C233.763,124.649,237.584,135.574,234.396,138.762z"/><path fill="#fce8cb" fill-rule="evenodd" d="M157.601,94.81c-4.044,0-7.322,3.278-7.322,7.322c0,4.044,3.278,7.322,7.322,7.322 c4.044,0,7.322-3.278,7.322-7.322C164.923,98.088,161.645,94.81,157.601,94.81z" clip-rule="evenodd"/><path fill="#3a312a" d="M157.602,93.31c-4.864,0-8.822,3.958-8.822,8.822c0,4.865,3.958,8.822,8.822,8.822s8.821-3.958,8.821-8.822 C166.423,97.268,162.466,93.31,157.602,93.31z M157.602,107.954c-3.21,0-5.822-2.612-5.822-5.822 c0-3.21,2.612-5.822,5.822-5.822s5.821,2.612,5.821,5.822C163.423,105.342,160.812,107.954,157.602,107.954z"/><path fill="#fce8cb" fill-rule="evenodd" d="M221.51,94.81c-4.044,0-7.322,3.278-7.322,7.322c0,4.044,3.278,7.322,7.322,7.322 c4.044,0,7.322-3.278,7.322-7.322C228.832,98.088,225.553,94.81,221.51,94.81z" clip-rule="evenodd"/><path fill="#3a312a" d="M221.51,93.31c-4.864,0-8.822,3.958-8.822,8.822c0,4.865,3.958,8.822,8.822,8.822s8.822-3.958,8.822-8.822 C230.332,97.268,226.374,93.31,221.51,93.31z M221.51,107.954c-3.21,0-5.822-2.612-5.822-5.822c0-3.21,2.612-5.822,5.822-5.822 s5.822,2.612,5.822,5.822C227.332,105.342,224.72,107.954,221.51,107.954z"/><path fill="#fce8cb" d="M189.555,66.119c-17.927,0-32.459,14.532-32.459,32.459c0,17.927,17.956,45.443,32.459,45.443 c15.194,0,32.459-27.516,32.459-45.443C222.015,80.651,207.482,66.119,189.555,66.119z"/><path fill="#3a312a" d="M189.556,64.619c-18.725,0-33.959,15.234-33.959,33.959c0,8.818,4.236,20.427,11.057,30.296 c7.31,10.579,15.657,16.646,22.902,16.646c16.071,0,33.959-27.98,33.959-46.942C223.515,79.853,208.28,64.619,189.556,64.619z M189.556,142.521c-13.663,0-30.959-27.245-30.959-43.942c0-17.071,13.888-30.959,30.959-30.959s30.959,13.888,30.959,30.959 c0,8.344-3.936,19.303-10.271,28.599C203.695,136.785,195.962,142.521,189.556,142.521z"/><path fill="#3a312a" d="M178.069,95.043c-1.75,0-3.168,1.419-3.168,3.168c0,1.75,1.418,3.168,3.168,3.168 c1.75,0,3.168-1.418,3.168-3.168C181.237,96.462,179.819,95.043,178.069,95.043z"/><path fill="#3a312a" d="M200.989,95.043c-1.75,0-3.168,1.419-3.168,3.168c0,1.75,1.418,3.168,3.168,3.168s3.168-1.418,3.168-3.168 C204.157,96.462,202.739,95.043,200.989,95.043z"/><path fill="#f5978a" d="M171.737,103.551c-3.014,0-5.457,1.826-5.457,4.08c0,2.253,2.443,4.08,5.457,4.08 c3.014,0,5.458-1.826,5.458-4.08C177.195,105.377,174.751,103.551,171.737,103.551z"/><path fill="#f5978a" d="M207.321,103.551c-3.014,0-5.458,1.826-5.458,4.08c0,2.253,2.443,4.08,5.458,4.08 c3.014,0,5.457-1.826,5.457-4.08C212.778,105.377,210.335,103.551,207.321,103.551z"/><path fill="#3a312a" d="M198.985,117.324c-0.779-0.291-1.641,0.102-1.931,0.878c-0.598,1.594-2.948,4.609-7.565,4.609 c-3.66,0-6.079-1.502-7.614-4.727c-0.355-0.748-1.25-1.066-1.999-0.71c-0.748,0.356-1.065,1.251-0.71,1.999 c2.033,4.272,5.507,6.438,10.323,6.438c5.439,0,9.19-3.398,10.374-6.556C200.154,118.479,199.761,117.615,198.985,117.324z"/><path fill="#87796f" d="M223.147,91.075c0-17.74-15.042-32.12-33.596-32.12s-33.596,14.381-33.596,32.121 c0,1.877,0.339,3.277,0.971,5.024c0.089,0.247,0.587,0.18,1.246-0.037c6.875-0.763,18.899-4.941,30.316-9.036 c8.863-3.179,13.789-5.516,18.807-8.256c0.843,1.71,1.598,5.893,4.391,9.676c2.453,3.322,5.558,6.978,9.804,7.597 c0.01-0.205,0.27-0.275,0.463-0.345C223.342,95.193,223.147,92.189,223.147,91.075z"/><path fill="#3a312a" d="M224.651,91.429l-0.004-0.354c0-18.539-15.744-33.621-35.097-33.621s-35.097,15.082-35.097,33.621 c0,2.156,0.424,3.771,1.061,5.537c0.173,0.475,0.615,1.131,1.739,1.131c0.343,0,0.749-0.061,1.23-0.207 c7.029-0.819,18.922-4.942,30.509-9.098c8.143-2.921,12.956-5.122,17.511-7.539c0.049,0.144,0.099,0.293,0.149,0.446 c0.726,2.169,1.72,5.14,3.824,7.992c2.845,3.851,6.12,7.509,10.795,8.19c0.419,0.058,0.842-0.057,1.168-0.325 c0.056-0.045,0.107-0.094,0.154-0.146C224.721,96.164,224.676,93.094,224.651,91.429z M221.352,94.32 c-0.1,0.037-0.192,0.076-0.278,0.118c-3.283-0.778-5.87-3.752-8.182-6.883c-1.824-2.47-2.73-5.182-3.394-7.161 c-0.303-0.906-0.564-1.689-0.86-2.288c-0.181-0.367-0.503-0.644-0.893-0.767c-0.388-0.124-0.812-0.082-1.171,0.114 c-4.91,2.682-9.732,4.982-18.595,8.161c-11.5,4.126-23.288,8.216-29.974,8.958c-0.005,0-0.01,0.001-0.014,0.001 c-0.346-1.118-0.538-2.159-0.538-3.498c0-16.884,14.398-30.621,32.097-30.621s32.097,13.736,32.097,30.621l0.004,0.398 C221.68,93.38,221.511,94.079,221.352,94.32z"/><polygon fill="#6ca8bf" points="121.48,61.05 126.5,69.74 126.5,52.43"/><path fill="#6ca8bf" d="M148.78,102.13c0-3.53,2.09-6.57,5.09-7.98l-13.48-23.33v-0.01l-10.89-18.7v22.82l12.45,21.57l10.03,17.36 c0.59-0.64,1.2-1.28,1.83-1.91c0.45-0.46,0.92-0.9,1.39-1.34C151.5,109.56,148.78,106.16,148.78,102.13z"/><path fill="#6ca8bf" d="M182.53,143.8c-4.51-2.12-9.15-6.14-13.53-11.74c-1.46,1.31-2.94,2.52-4.42,3.64l3.93,6.8l11.55,20 l15.01,26l11.54,20l17.02,29.48h13.27L182.53,143.8z"/></g></svg>